<svg xmlns="http://www.w3.org/2000/svg" version="1.1" xmlns:xlink="http://www.w3.org/1999/xlink" viewBox="0 0 200 200"><rect width="200" height="200" fill="url('#gradient')"></rect><defs><linearGradient id="gradient" gradientTransform="rotate(45 0.5 0.5)"><stop offset="0%" stop-color="#f9f8f1"></stop><stop offset="100%" stop-color="#efc6c3"></stop></linearGradient></defs><g><g fill="#375263" transform="matrix(7.544821940237413,0,0,7.544821940237413,5.426482191302469,153.643059868916)" stroke="#375263" stroke-width="0.2"><path d="M11.65-12.46L4.92-2.64L11.72-2.64L11.72 0L0.64 0L0.64-1.81L7.42-11.57L0.61-11.57L0.61-14.22L11.65-14.22L11.65-12.46ZM18.89-4.82L16.70-4.82L16.70 0L13.27 0L13.27-14.22L18.95-14.22Q20.58-14.22 21.83-13.62Q23.09-13.02 23.77-11.91Q24.46-10.80 24.46-9.39L24.46-9.39Q24.46-7.31 22.97-6.07Q21.48-4.82 18.89-4.82L18.89-4.82ZM16.70-11.57L16.70-7.47L18.95-7.47Q19.94-7.47 20.46-7.97Q20.99-8.47 20.99-9.38L20.99-9.38Q20.99-10.37 20.45-10.97Q19.91-11.56 18.98-11.57L18.98-11.57L16.70-11.57Z"></path></g></g></svg>